<svg width="28" height="24" viewBox="0 0 28 24" fill="none" xmlns="http://www.w3.org/2000/svg">
<path d="M19.3496 14.129C19.4761 13.9979 19.5961 13.8547 19.7132 13.6946C19.8268 13.5393 19.9303 13.3767 20.0116 13.213L21.5909 13.1825C21.7309 13.1799 21.8518 13.067 21.8676 12.93L22.0822 10.6224C22.1001 10.4721 21.9995 10.3474 21.8642 10.3016L20.3243 9.90062C20.2082 9.53485 20.0558 9.18732 19.8449 8.85684L20.5656 7.49359C20.6307 7.3626 20.5906 7.20756 20.4702 7.12051L18.5433 5.7277C18.4229 5.64065 18.2672 5.65423 18.162 5.7562L17.0801 6.85831C16.6989 6.76078 16.3108 6.72507 15.9336 6.7269L15.075 5.39413C14.993 5.27551 14.8391 5.22366 14.7009 5.2869L12.5644 6.20534C12.4296 6.26373 12.3575 6.40442 12.4081 6.54491L12.8661 8.048C12.7346 8.17545 12.5974 8.3211 12.4874 8.47154C12.3774 8.62199 12.2704 8.78939 12.189 8.95312L10.6097 8.9836C10.4697 8.98626 10.3488 9.09916 10.333 9.23612L10.1184 11.5437C10.1006 11.694 10.2012 11.8187 10.3364 11.8645L11.8763 12.2655C11.9924 12.6313 12.1448 12.9788 12.3557 13.3093L11.635 14.6725C11.575 14.8071 11.61 14.9586 11.7304 15.0456L13.6573 16.4384C13.7777 16.5255 13.9384 16.5155 14.0386 16.4099L15.1206 15.3078C15.5018 15.4053 15.8863 15.4459 16.267 15.4392L17.1256 16.772C17.2077 16.8906 17.3615 16.9425 17.4998 16.8792L19.6413 15.9644C19.7796 15.9012 19.8432 15.7617 19.7975 15.6248L19.3496 14.129ZM14.8229 12.8302C13.8293 12.112 13.5913 10.7382 14.2939 9.7773C14.9964 8.81639 16.3842 8.61778 17.3777 9.33595C18.3713 10.0541 18.6093 11.4279 17.9068 12.3888C17.2042 13.3497 15.8164 13.5483 14.8229 12.8302Z" fill="#59168B" fill-opacity="0.4"/>
<path d="M10.6207 5.51984C11.55 5.51984 12.3103 6.27584 12.3103 7.19984C12.3103 8.12384 11.55 8.87984 10.6207 8.87984C9.69137 8.87984 8.93103 8.12384 8.93103 7.19984C8.93103 6.27584 9.69137 5.51984 10.6207 5.51984ZM10.6207 13.0798C12.9017 13.0798 15.5207 14.1634 15.6896 14.7598V15.5998H5.55172V14.7682C5.72068 14.1634 8.33965 13.0798 10.6207 13.0798ZM10.6207 3.83984C8.75361 3.83984 7.24137 5.34344 7.24137 7.19984C7.24137 9.05624 8.75361 10.5598 10.6207 10.5598C12.4877 10.5598 14 9.05624 14 7.19984C14 5.34344 12.4877 3.83984 10.6207 3.83984ZM10.6207 11.3998C8.36499 11.3998 3.86206 12.5254 3.86206 14.7598V17.2798H17.3793V14.7598C17.3793 12.5254 12.8764 11.3998 10.6207 11.3998Z" fill="#59168B"/>
</svg>
