<svg width="27" height="16" viewBox="0 0 27 16" fill="none" xmlns="http://www.w3.org/2000/svg">
<path d="M5.45486 9.68421C6.96176 9.68421 8.18228 8.27105 8.18228 6.52632C8.18228 4.78158 6.96176 3.36842 5.45486 3.36842C3.94795 3.36842 2.72743 4.78158 2.72743 6.52632C2.72743 8.27105 3.94795 9.68421 5.45486 9.68421ZM5.45486 4.94737C6.2049 4.94737 6.81857 5.65789 6.81857 6.52632C6.81857 7.39474 6.2049 8.10526 5.45486 8.10526C4.70481 8.10526 4.09114 7.39474 4.09114 6.52632C4.09114 5.65789 4.70481 4.94737 5.45486 4.94737ZM5.45486 11.2632C3.6343 11.2632 0 12.3211 0 14.4211V16H10.9097V14.4211C10.9097 12.3211 7.27541 11.2632 5.45486 11.2632ZM1.5 14C1.65001 13.4316 3.62066 12.8421 5.45486 12.8421C7.29587 12.8421 9.36363 13.4395 9.5 14H5L1.5 14ZM9.60055 4.98684C10.1733 5.91842 10.1733 7.12632 9.60055 8.05789L10.7461 9.39211C12.1234 7.79737 12.1234 5.38947 10.7461 3.65263L9.60055 4.98684ZM13.003 1L11.8916 2.28684C13.7803 4.67105 13.7803 8.25526 11.8916 10.7658L13.003 12.0526C15.6623 8.98158 15.6691 4.19737 13.003 1Z" fill="#59168B"/>
<path d="M23 14C24.1 14 25 13.1 25 12V2C25 0.9 24.1 0 23 0H7C5.9 0 5 0.9 5 2V12C5 13.1 5.9 14 7 14H3V16H27V14H23ZM7 2H23V12H7V2Z" fill="#59168B" fill-opacity="0.4"/>
</svg>
